<?xml version="1.0" encoding="UTF-8"?>
<svg width="51px" height="66px" viewBox="0 0 51 66" version="1.1" xmlns="http://www.w3.org/2000/svg" xmlns:xlink="http://www.w3.org/1999/xlink">
    <!-- Generator: Sketch 49.2 (51160) - http://www.bohemiancoding.com/sketch -->
    <title>klein_logo</title>
    <desc>Created with Sketch.</desc>
    <defs></defs>
    <g id="webpage" stroke="none" stroke-width="1" fill="none" fill-rule="evenodd">
        <g id="Desktop-HD" transform="translate(-312.000000, -21.000000)">
            <g id="klein_logo" transform="translate(305.000000, 22.000000)">
                <g id="Group-Copy-16" transform="translate(9.000000, 0.000000)">
                    <g id="background" transform="translate(0.000000, 43.881935)" fill="#60A36D">
                        <path d="M36.0868862,1.50073662 C44.3732086,2.91382504 51.9043478,4.1367443 42.7495652,6.41912605 C39.8351996,6.81999589 34.0116055,6.41912605 25.8694949,6.41912605 C15.4622663,6.41912605 6.54740177,6.88696055 2.86086957,6.41912605 C-1.0626087,5.92122223 -1.69115475,3.82568578 6.00688623,2.02238399 C17.777321,-0.734894937 24.7251471,-0.436810729 36.0868862,1.50073662 Z" id="Oval-3"></path>
                    </g>
                    <g id="owl" transform="translate(8.173913, 0.000000)">
                        <g id="feet" transform="translate(7.163212, 39.699506)" stroke="#FFD643" stroke-width="2">
                            <polyline id="Path-2-Copy" points="9.0318756 5.05731161 11.5827694 3.68645955 11.7161527 0 11.7161527 3.68645955 14.0961797 5.05731161"></polyline>
                            <polyline id="Path-2" points="0 5.05731161 2.55089377 3.68645955 2.68427711 0 2.68427711 3.68645955 5.06430413 5.05731161"></polyline>
                        </g>
                        <g id="body" stroke="#3D3C3D">
                            <path d="M3.21825452,0 C3.21825452,0 10.6417038,2.76921779 14.274516,2.76921779 C17.9073283,2.76921779 25.3307775,0 25.3307775,0 C25.3307775,0 24.3418848,2.30412346 24.3418848,3.40281482 C24.3418848,4.50150617 25.3307775,6.80562963 25.3307775,6.80562963 L3.21825452,6.80562963 C3.21825452,6.80562963 3.9071381,4.54675351 3.9071381,3.40281482 C3.9071381,2.25887612 3.21825452,0 3.21825452,0 Z" id="Rectangle" fill="#FF5943"></path>
                            <path d="M14.2226087,41.040009 C24.3815054,41.040009 28.4452174,31.9602236 28.4452174,27.5839306 C28.4452174,17.7270465 26.4727388,16.2922649 14.2226087,16.2922649 C1.97247858,16.2922649 0,17.7903136 0,27.5839306 C2.88405747e-16,32.0401063 4.06371196,41.040009 14.2226087,41.040009 Z" id="Oval-2" fill="#FF5943"></path>
                            <path d="M4.87928911,26.7352358 C4.87928911,26.7352358 6.46932402,25.9636112 8.25326563,25.8865708 C10.0372072,25.8095304 11.6272421,26.7352358 11.6272421,26.7352358" id="Path-4"></path>
                            <path d="M3.73732783,31.8910158 C3.73732783,31.8910158 5.32736274,31.1193912 7.11130435,31.0423508 C8.89524595,30.9653104 10.4852809,31.8910158 10.4852809,31.8910158" id="Path-4-Copy"></path>
                            <path d="M10.9005395,37.3561426 C10.9005395,37.3561426 12.4905744,36.5845181 14.274516,36.5074777 C16.0584576,36.4304373 17.6484925,37.3561426 17.6484925,37.3561426" id="Path-4-Copy-3"></path>
                            <path d="M16.8179752,26.7352358 C16.8179752,26.7352358 18.4080102,25.9636112 20.1919518,25.8865708 C21.9758934,25.8095304 23.5659283,26.7352358 23.5659283,26.7352358" id="Path-4-Copy-4"></path>
                            <path d="M18.0637512,31.8910158 C18.0637512,31.8910158 19.6537861,31.1193912 21.4377277,31.0423508 C23.2216693,30.9653104 24.8117042,31.8910158 24.8117042,31.8910158" id="Path-4-Copy-5"></path>
                        </g>
                        <path d="M14.2226087,25.9529077 C14.2226087,25.9529077 13.1844621,24.9217517 12.1463155,23.5812489 C11.1081688,22.2407461 8.92806093,21.1064745 8.92806093,21.1064745 C8.92806093,21.1064745 12.3020374,20.0044265 14.2226087,20.0044265 C16.1431799,20.0044265 19.4133418,21.1064745 19.4133418,21.1064745 C19.4133418,21.1064745 17.0256046,22.6532085 16.2989019,23.5812489 C15.5721993,24.5092893 14.2226087,25.9529077 14.2226087,25.9529077 Z" id="beek" stroke="#414141" fill="#FFD643"></path>
                        <g id="eyes" transform="translate(0.622888, 3.609046)" stroke="#3D3C3D">
                            <path d="M13.5997207,1.68941618 C15.0065116,0.625487059 16.7260855,0 18.5828245,0 C23.3416506,0 27.1994414,4.10881199 27.1994414,9.17728844 C27.1994414,14.2457649 23.3416506,18.3545769 18.5828245,18.3545769 C16.7260855,18.3545769 15.0065116,17.7290898 13.5997207,16.6651607 C12.1929298,17.7290898 10.473356,18.3545769 8.61661695,18.3545769 C3.85779081,18.3545769 0,14.2457649 0,9.17728844 C0,4.10881199 3.85779081,0 8.61661695,0 C10.473356,0 12.1929298,0.625487059 13.5997207,1.68941618 Z" fill="#FEF6FA"></path>
                            <path d="M5.39836242,11.6520629 C5.39836242,11.6520629 6.49305149,9.23229819 8.51162003,9.17870079 C10.5301886,9.1251034 10.9838953,10.6147957 10.9838953,10.6147957" id="Path-3"></path>
                            <path d="M15.4683846,11.6520629 C15.4683846,11.6520629 16.5630737,9.23229819 18.5816422,9.17870079 C20.6002108,9.1251034 21.0539175,10.6147957 21.0539175,10.6147957" id="Path-3-Copy" transform="translate(18.261151, 10.414676) scale(-1, 1) translate(-18.261151, -10.414676) "></path>
                        </g>
                    </g>
                </g>
                <path d="M17.199,64 L15.496,64 C15.3053324,64 15.1482506,63.9555838 15.02475,63.86675 C14.9012494,63.7779162 14.8156669,63.6641674 14.768,63.5255 L14.209,61.8745 L10.608,61.8745 L10.049,63.5255 C10.0056664,63.6468339 9.92116729,63.7562495 9.7955,63.85375 C9.6698327,63.9512505 9.51600091,64 9.334,64 L7.618,64 L11.284,54.5295 L13.533,54.5295 L17.199,64 Z M11.115,60.3795 L13.702,60.3795 L12.831,57.786 C12.7746664,57.6213325 12.7085837,57.4274178 12.63275,57.20425 C12.5569163,56.9810822 12.482167,56.7395013 12.4085,56.4795 C12.3391663,56.7438347 12.267667,56.9886655 12.194,57.214 C12.120333,57.4393345 12.0510003,57.6343325 11.986,57.799 L11.115,60.3795 Z M20.332,64.104 C20.0113317,64.104 19.7285846,64.0574171 19.48375,63.96425 C19.2389154,63.8710829 19.0330842,63.7389175 18.86625,63.56775 C18.6994158,63.3965825 18.5726671,63.1896679 18.486,62.947 C18.3993329,62.7043321 18.356,62.4335015 18.356,62.1345 L18.356,58.6505 L17.784,58.6505 C17.6799995,58.6505 17.591167,58.616917 17.5175,58.54975 C17.443833,58.482583 17.407,58.3840006 17.407,58.254 L17.407,57.4675 L18.4795,57.2595 L18.876,55.615 C18.9280003,55.406999 19.0753321,55.303 19.318,55.303 L20.371,55.303 L20.371,57.2725 L22.009,57.2725 L22.009,58.6505 L20.371,58.6505 L20.371,61.998 C20.371,62.1540008 20.4089163,62.2829162 20.48475,62.38475 C20.5605837,62.4865838 20.6699993,62.5375 20.813,62.5375 C20.886667,62.5375 20.9484164,62.5299167 20.99825,62.51475 C21.0480836,62.4995833 21.0914165,62.4822501 21.12825,62.46275 C21.1650835,62.4432499 21.1997498,62.4259167 21.23225,62.41075 C21.2647502,62.3955833 21.3026664,62.388 21.346,62.388 C21.406667,62.388 21.4554165,62.4020832 21.49225,62.43025 C21.5290835,62.4584168 21.5669998,62.502833 21.606,62.5635 L22.217,63.519 C21.9569987,63.714001 21.6645016,63.8602495 21.3395,63.95775 C21.0144984,64.0552505 20.6786684,64.104 20.332,64.104 Z M23.166,64 L23.166,57.2595 L24.362,57.2595 C24.4616672,57.2595 24.545083,57.2681666 24.61225,57.2855 C24.679417,57.3028334 24.7357498,57.3299165 24.78125,57.36675 C24.8267502,57.4035835 24.8614165,57.452333 24.88525,57.513 C24.9090835,57.573667 24.9296666,57.6473329 24.947,57.734 L25.0575,58.3645 C25.3045012,57.9831648 25.5818318,57.6820011 25.8895,57.461 C26.1971682,57.2399989 26.5329982,57.1295 26.897,57.1295 C27.2046682,57.1295 27.4516657,57.2031659 27.638,57.3505 L27.378,58.8325 C27.3606666,58.9235005 27.3260003,58.9874165 27.274,59.02425 C27.2219997,59.0610835 27.1526671,59.0795 27.066,59.0795 C26.992333,59.0795 26.9056672,59.0697501 26.806,59.05025 C26.7063328,59.0307499 26.5806674,59.021 26.429,59.021 C25.9003307,59.021 25.4843348,59.3026639 25.181,59.866 L25.181,64 L23.166,64 Z M31.421,57.1555 C31.8673356,57.1555 32.2757481,57.2248326 32.64625,57.3635 C33.0167519,57.5021674 33.3352487,57.7036653 33.60175,57.968 C33.8682513,58.2323347 34.0762493,58.5562481 34.22575,58.93975 C34.3752507,59.3232519 34.45,59.7576642 34.45,60.243 C34.45,60.3946674 34.4435001,60.5181662 34.4305,60.6135 C34.4174999,60.7088338 34.3936668,60.7846664 34.359,60.841 C34.3243332,60.8973336 34.2777503,60.9363332 34.21925,60.958 C34.1607497,60.9796668 34.0860005,60.9905 33.995,60.9905 L30.108,60.9905 C30.1730003,61.5538361 30.3441653,61.9622487 30.6215,62.21575 C30.8988347,62.4692513 31.2563311,62.596 31.694,62.596 C31.9280012,62.596 32.1294992,62.5678336 32.2985,62.5115 C32.4675008,62.4551664 32.6180827,62.3923337 32.75025,62.323 C32.8824173,62.2536663 33.0037494,62.1908336 33.11425,62.1345 C33.2247506,62.0781664 33.3406661,62.05 33.462,62.05 C33.6223341,62.05 33.7436663,62.1084994 33.826,62.2255 L34.411,62.947 C34.202999,63.1853345 33.9787512,63.3792493 33.73825,63.52875 C33.4977488,63.6782507 33.2507513,63.7952496 32.99725,63.87975 C32.7437487,63.9642504 32.4902513,64.0227498 32.23675,64.05525 C31.9832487,64.0877502 31.7416678,64.104 31.512,64.104 C31.0396643,64.104 30.5965854,64.0270841 30.18275,63.87325 C29.7689146,63.7194159 29.4070849,63.4908348 29.09725,63.1875 C28.7874151,62.8841652 28.5425842,62.5071689 28.36275,62.0565 C28.1829158,61.6058311 28.093,61.081503 28.093,60.4835 C28.093,60.0328311 28.1699159,59.606002 28.32375,59.203 C28.4775841,58.799998 28.6985819,58.4468349 28.98675,58.1435 C29.2749181,57.8401651 29.623748,57.5996676 30.03325,57.422 C30.442752,57.2443324 30.9053308,57.1555 31.421,57.1555 Z M31.46,58.5465 C31.0743314,58.5465 30.7731677,58.6559156 30.5565,58.87475 C30.3398323,59.0935844 30.1968337,59.4088313 30.1275,59.8205 L32.643,59.8205 C32.643,59.6601659 32.6224169,59.5041674 32.58125,59.3525 C32.5400831,59.2008326 32.4729171,59.0654173 32.37975,58.94625 C32.2865829,58.8270827 32.1641674,58.730667 32.0125,58.657 C31.8608326,58.583333 31.6766678,58.5465 31.46,58.5465 Z M35.607,64 L35.607,57.2595 L36.855,57.2595 C36.9806673,57.2595 37.0857496,57.2876664 37.17025,57.344 C37.2547504,57.4003336 37.3143332,57.4848328 37.349,57.5975 L37.466,57.9875 C37.5960007,57.8661661 37.7303326,57.7535005 37.869,57.6495 C38.0076674,57.5454995 38.1560825,57.4577504 38.31425,57.38625 C38.4724175,57.3147496 38.6435824,57.2584169 38.82775,57.21725 C39.0119176,57.1760831 39.2123323,57.1555 39.429,57.1555 C39.7973352,57.1555 40.1234152,57.219416 40.40725,57.34725 C40.6910848,57.475084 40.930499,57.6527489 41.1255,57.88025 C41.320501,58.1077511 41.4678328,58.3785818 41.5675,58.69275 C41.6671672,59.0069182 41.717,59.3481648 41.717,59.7165 L41.717,64 L39.702,64 L39.702,59.7165 C39.702,59.387165 39.6261674,59.1304176 39.4745,58.94625 C39.3228326,58.7620824 39.0996681,58.67 38.805,58.67 C38.5839989,58.67 38.376001,58.7176662 38.181,58.813 C37.985999,58.9083338 37.7996676,59.0361659 37.622,59.1965 L37.622,64 L35.607,64 Z M45.162,54.2695 L45.162,59.723 L45.461,59.723 C45.5866673,59.723 45.683083,59.7056668 45.75025,59.671 C45.817417,59.6363332 45.881333,59.5735005 45.942,59.4825 L47.216,57.5845 C47.289667,57.4718328 47.3774162,57.3895003 47.47925,57.3375 C47.5810838,57.2854997 47.7099992,57.2595 47.866,57.2595 L49.712,57.2595 L47.97,59.658 C47.8876663,59.7706672 47.7977505,59.8703329 47.70025,59.957 C47.6027495,60.0436671 47.4976672,60.1216663 47.385,60.191 C47.580001,60.3383341 47.7489993,60.5333321 47.892,60.776 L49.79,64 L47.97,64 C47.8183326,64 47.6872506,63.9750836 47.57675,63.92525 C47.4662494,63.8754164 47.3763337,63.7876673 47.307,63.662 L46.033,61.2765 C45.972333,61.1681661 45.9095003,61.0977502 45.8445,61.06525 C45.7794997,61.0327498 45.6820006,61.0165 45.552,61.0165 L45.162,61.0165 L45.162,64 L43.147,64 L43.147,54.2695 L45.162,54.2695 Z M53.638,57.1555 C54.1493359,57.1555 54.6151646,57.2356659 55.0355,57.396 C55.4558354,57.5563341 55.8165818,57.7859985 56.11775,58.085 C56.4189182,58.3840015 56.6529158,58.7469145 56.81975,59.17375 C56.9865842,59.6005855 57.07,60.0804973 57.07,60.6135 C57.07,61.150836 56.9865842,61.6350812 56.81975,62.06625 C56.6529158,62.4974188 56.4189182,62.8635818 56.11775,63.16475 C55.8165818,63.4659182 55.4558354,63.6977492 55.0355,63.86025 C54.6151646,64.0227508 54.1493359,64.104 53.638,64.104 C53.1223308,64.104 52.6532521,64.0227508 52.23075,63.86025 C51.8082479,63.6977492 51.4442515,63.4659182 51.13875,63.16475 C50.8332485,62.8635818 50.5970842,62.4974188 50.43025,62.06625 C50.2634158,61.6350812 50.18,61.150836 50.18,60.6135 C50.18,60.0804973 50.2634158,59.6005855 50.43025,59.17375 C50.5970842,58.7469145 50.8332485,58.3840015 51.13875,58.085 C51.4442515,57.7859985 51.8082479,57.5563341 52.23075,57.396 C52.6532521,57.2356659 53.1223308,57.1555 53.638,57.1555 Z M53.638,62.609 C54.101669,62.609 54.4429156,62.4454183 54.66175,62.11825 C54.8805844,61.7910817 54.99,61.2938367 54.99,60.6265 C54.99,59.9591633 54.8805844,59.4630016 54.66175,59.138 C54.4429156,58.8129984 54.101669,58.6505 53.638,58.6505 C53.1613309,58.6505 52.8125011,58.8129984 52.5915,59.138 C52.3704989,59.4630016 52.26,59.9591633 52.26,60.6265 C52.26,61.2938367 52.3704989,61.7910817 52.5915,62.11825 C52.8125011,62.4454183 53.1613309,62.609 53.638,62.609 Z" id="Atrenko" fill="#FEF6FA"></path>
            </g>
        </g>
    </g>
</svg>