<?xml version="1.0" encoding="UTF-8"?>
<svg width="50px" height="66px" viewBox="0 0 50 66" version="1.1" xmlns="http://www.w3.org/2000/svg" xmlns:xlink="http://www.w3.org/1999/xlink">
    <!-- Generator: Sketch 43.2 (39069) - http://www.bohemiancoding.com/sketch -->
    <title>klein_logo</title>
    <desc>Created with Sketch.</desc>
    <defs></defs>
    <g id="webpage" stroke="none" stroke-width="1" fill="none" fill-rule="evenodd">
        <g id="Desktop-HD" transform="translate(-312.000000, -21.000000)">
            <g id="klein_logo" transform="translate(305.000000, 22.000000)">
                <g id="Group-Copy-16" transform="translate(9.000000, 0.000000)">
                    <g id="background" transform="translate(0.000000, 43.881935)" fill="#60A36C">
                        <path d="M36.0868862,1.50073662 C44.3732086,2.91382504 51.9043478,4.1367443 42.7495652,6.41912605 C39.8351996,6.81999589 34.0116055,6.41912605 25.8694949,6.41912605 C15.4622663,6.41912605 6.54740177,6.88696055 2.86086957,6.41912605 C-1.0626087,5.92122223 -1.69115475,3.82568578 6.00688623,2.02238399 C17.777321,-0.734894937 24.7251471,-0.436810729 36.0868862,1.50073662 Z" id="Oval-3"></path>
                    </g>
                    <g id="owl" transform="translate(8.173913, 0.000000)">
                        <g id="feet" transform="translate(7.163212, 39.699506)" stroke-width="2" stroke="#FFD643">
                            <polyline id="Path-2-Copy" points="9.0318756 5.05731161 11.5827694 3.68645955 11.7161527 0 11.7161527 3.68645955 14.0961797 5.05731161"></polyline>
                            <polyline id="Path-2" points="0 5.05731161 2.55089377 3.68645955 2.68427711 0 2.68427711 3.68645955 5.06430413 5.05731161"></polyline>
                        </g>
                        <g id="body" stroke="#3D3C3D">
                            <path d="M3.21825452,0 C3.21825452,0 10.6417038,2.76921779 14.274516,2.76921779 C17.9073283,2.76921779 25.3307775,0 25.3307775,0 C25.3307775,0 24.3418848,2.30412346 24.3418848,3.40281482 C24.3418848,4.50150617 25.3307775,6.80562963 25.3307775,6.80562963 L3.21825452,6.80562963 C3.21825452,6.80562963 3.9071381,4.54675351 3.9071381,3.40281482 C3.9071381,2.25887612 3.21825452,0 3.21825452,0 Z" id="Rectangle" fill="#FF5943"></path>
                            <path d="M14.2226087,41.040009 C24.3815054,41.040009 28.4452174,31.9602236 28.4452174,27.5839306 C28.4452174,17.7270465 26.4727388,16.2922649 14.2226087,16.2922649 C1.97247858,16.2922649 0,17.7903136 0,27.5839306 C2.88405747e-16,32.0401063 4.06371196,41.040009 14.2226087,41.040009 Z" id="Oval-2" fill="#FF5943"></path>
                            <path d="M4.87928911,26.7352358 C4.87928911,26.7352358 6.46932402,25.9636112 8.25326563,25.8865708 C10.0372072,25.8095304 11.6272421,26.7352358 11.6272421,26.7352358" id="Path-4"></path>
                            <path d="M3.73732783,31.8910158 C3.73732783,31.8910158 5.32736274,31.1193912 7.11130435,31.0423508 C8.89524595,30.9653104 10.4852809,31.8910158 10.4852809,31.8910158" id="Path-4-Copy"></path>
                            <path d="M10.9005395,37.3561426 C10.9005395,37.3561426 12.4905744,36.5845181 14.274516,36.5074777 C16.0584576,36.4304373 17.6484925,37.3561426 17.6484925,37.3561426" id="Path-4-Copy-3"></path>
                            <path d="M16.8179752,26.7352358 C16.8179752,26.7352358 18.4080102,25.9636112 20.1919518,25.8865708 C21.9758934,25.8095304 23.5659283,26.7352358 23.5659283,26.7352358" id="Path-4-Copy-4"></path>
                            <path d="M18.0637512,31.8910158 C18.0637512,31.8910158 19.6537861,31.1193912 21.4377277,31.0423508 C23.2216693,30.9653104 24.8117042,31.8910158 24.8117042,31.8910158" id="Path-4-Copy-5"></path>
                        </g>
                        <path d="M14.2226087,25.9529077 C14.2226087,25.9529077 13.1844621,24.9217517 12.1463155,23.5812489 C11.1081688,22.2407461 8.92806093,21.1064745 8.92806093,21.1064745 C8.92806093,21.1064745 12.3020374,20.0044265 14.2226087,20.0044265 C16.1431799,20.0044265 19.4133418,21.1064745 19.4133418,21.1064745 C19.4133418,21.1064745 17.0256046,22.6532085 16.2989019,23.5812489 C15.5721993,24.5092893 14.2226087,25.9529077 14.2226087,25.9529077 Z" id="beek" stroke="#414141" fill="#FFD643"></path>
                        <g id="eyes" transform="translate(0.622888, 3.609046)" stroke="#3D3C3D">
                            <path d="M13.5997207,1.68941618 C12.1929298,0.625487059 10.473356,0 8.61661695,0 C3.85779081,0 0,4.10881199 0,9.17728844 C0,14.2457649 3.85779081,18.3545769 8.61661695,18.3545769 C10.473356,18.3545769 12.1929298,17.7290898 13.5997207,16.6651607 C15.0065116,17.7290898 16.7260855,18.3545769 18.5828245,18.3545769 C23.3416506,18.3545769 27.1994414,14.2457649 27.1994414,9.17728844 C27.1994414,4.10881199 23.3416506,0 18.5828245,0 C16.7260855,0 15.0065116,0.625487059 13.5997207,1.68941618 Z" fill="#FEF6FA"></path>
                            <path d="M5.39836242,11.6520629 C5.39836242,11.6520629 6.49305149,9.23229819 8.51162003,9.17870079 C10.5301886,9.1251034 10.9838953,10.6147957 10.9838953,10.6147957" id="Path-3"></path>
                            <path d="M15.4683846,11.6520629 C15.4683846,11.6520629 16.5630737,9.23229819 18.5816422,9.17870079 C20.6002108,9.1251034 21.0539175,10.6147957 21.0539175,10.6147957" id="Path-3-Copy" transform="translate(18.261151, 10.414676) scale(-1, 1) translate(-18.261151, -10.414676) "></path>
                        </g>
                    </g>
                </g>
                <text id="Atrenko" font-family="Lato-Black, Lato" font-size="13" font-weight="700" fill="#FEF6FA">
                    <tspan x="7.605" y="64">Atrenko</tspan>
                </text>
            </g>
        </g>
    </g>
</svg>